ISO-10303-21;
HEADER;
FILE_DESCRIPTION (( 'STEP AP214' ),
    '1' );
FILE_NAME ('cam.STEP',
    '2026-08-22T17:18:53',
    ( '' ),
    ( '' ),
    'SwSTEP 2.0',
    'SolidWorks 2024',
    '' );
FILE_SCHEMA (( 'AUTOMOTIVE_DESIGN' ));
ENDSEC;

DATA;
#1 = VERTEX_POINT ( 'NONE', #241 ) ;
#2 = ADVANCED_FACE ( 'NONE', ( #216, #12 ), #219, .T. ) ;
#3 = VERTEX_POINT ( 'NONE', #105 ) ;
#4 = PLANE ( 'NONE',  #221 ) ;
#5 = VERTEX_POINT ( 'NONE', #103 ) ;
#6 = DIRECTION ( 'NONE',  ( -0.000000000000000000, -0.000000000000000000, -1.000000000000000000 ) ) ;
#7 = EDGE_LOOP ( 'NONE', ( #136, #170, #51, #151, #57 ) ) ;
#8 = CARTESIAN_POINT ( 'NONE',  ( -50.00000000000000000, -1.060107667984752945E-14, 20.00000000000000000 ) ) ;
#9 = VERTEX_POINT ( 'NONE', #196 ) ;
#10 = EDGE_CURVE ( 'NONE', #5, #94, #295, .T. ) ;
#11 = VERTEX_POINT ( 'NONE', #40 ) ;
#12 = FACE_BOUND ( 'NONE', #81, .T. ) ;
#13 =( NAMED_UNIT ( * ) PLANE_ANGLE_UNIT ( ) SI_UNIT ( $, .RADIAN. ) );
#14 = EDGE_CURVE ( 'NONE', #87, #11, #37, .T. ) ;
#15 = CARTESIAN_POINT ( 'NONE',  ( 0.000000000000000000, 0.000000000000000000, -20.00000000000000000 ) ) ;
#16 = LINE ( 'NONE', #225, #128 ) ;
#17 = PRESENTATION_LAYER_ASSIGNMENT (  '', '', ( #21 ) ) ;
#18 = DIRECTION ( 'NONE',  ( 0.000000000000000000, 0.000000000000000000, 1.000000000000000000 ) ) ;
#19 = DIRECTION ( 'NONE',  ( -0.000000000000000000, -0.000000000000000000, -1.000000000000000000 ) ) ;
#20 = PRODUCT_CONTEXT ( 'NONE', #32, 'mechanical' ) ;
#21 = STYLED_ITEM ( 'NONE', ( #47 ), #176 ) ;
#22 = ORIENTED_EDGE ( 'NONE', *, *, #218, .F. ) ;
#23 = ADVANCED_FACE ( 'NONE', ( #238 ), #174, .T. ) ;
#24 = CARTESIAN_POINT ( 'NONE',  ( -65.99999999999920419, 36.66060555964706680, 20.00000000000000000 ) ) ;
#25 = ORIENTED_EDGE ( 'NONE', *, *, #72, .T. ) ;
#26 = DIRECTION ( 'NONE',  ( -0.000000000000000000, -0.000000000000000000, -1.000000000000000000 ) ) ;
#27 = ORIENTED_EDGE ( 'NONE', *, *, #294, .T. ) ;
#28 = AXIS2_PLACEMENT_3D ( 'NONE', #229, #244, #66 ) ;
#29 = DIRECTION ( 'NONE',  ( -1.000000000000000000, 0.000000000000000000, 0.000000000000000000 ) ) ;
#30 = ORIENTED_EDGE ( 'NONE', *, *, #226, .F. ) ;
#31 = ORIENTED_EDGE ( 'NONE', *, *, #197, .F. ) ;
#32 = APPLICATION_CONTEXT ( 'automotive_design' ) ;
#33 = AXIS2_PLACEMENT_3D ( 'NONE', #239, #123, #35 ) ;
#34 = VECTOR ( 'NONE', #6, 1000.000000000000000 ) ;
#35 = DIRECTION ( 'NONE',  ( -1.000000000000000000, 0.000000000000000000, 0.000000000000000000 ) ) ;
#36 = EDGE_CURVE ( 'NONE', #9, #278, #215, .T. ) ;
#37 = LINE ( 'NONE', #175, #149 ) ;
#38 = ORIENTED_EDGE ( 'NONE', *, *, #140, .T. ) ;
#39 = ADVANCED_FACE ( 'NONE', ( #190 ), #193, .T. ) ;
#40 = CARTESIAN_POINT ( 'NONE',  ( -24.00000000000001421, -54.99090833947010282, -20.00000000000000000 ) ) ;
#41 = VECTOR ( 'NONE', #90, 1000.000000000000000 ) ;
#42 = PLANE ( 'NONE',  #195 ) ;
#43 = CARTESIAN_POINT ( 'NONE',  ( -65.99999999999920419, 36.66060555964706680, 20.00000000000000000 ) ) ;
#44 = FILL_AREA_STYLE ('',( #71 ) ) ;
#45 = AXIS2_PLACEMENT_3D ( 'NONE', #138, #26, #29 ) ;
#46 = CARTESIAN_POINT ( 'NONE',  ( 0.000000000000000000, 0.000000000000000000, -20.00000000000000000 ) ) ;
#47 = PRESENTATION_STYLE_ASSIGNMENT (( #228 ) ) ;
#48 = EDGE_CURVE ( 'NONE', #278, #80, #220, .T. ) ;
#49 = LINE ( 'NONE', #257, #266 ) ;
#50 = ORIENTED_EDGE ( 'NONE', *, *, #93, .F. ) ;
#51 = ORIENTED_EDGE ( 'NONE', *, *, #117, .T. ) ;
#52 = ORIENTED_EDGE ( 'NONE', *, *, #184, .F. ) ;
#53 = LINE ( 'NONE', #113, #296 ) ;
#54 = ORIENTED_EDGE ( 'NONE', *, *, #14, .F. ) ;
#55 = CIRCLE ( 'NONE', #28, 39.99999999999999289 ) ;
#56 = CARTESIAN_POINT ( 'NONE',  ( 0.000000000000000000, 0.000000000000000000, 0.000000000000000000 ) ) ;
#57 = ORIENTED_EDGE ( 'NONE', *, *, #226, .T. ) ;
#58 = ORIENTED_EDGE ( 'NONE', *, *, #117, .F. ) ;
#59 = CARTESIAN_POINT ( 'NONE',  ( 0.000000000000000000, 0.000000000000000000, 20.00000000000000000 ) ) ;
#60 = MECHANICAL_DESIGN_GEOMETRIC_PRESENTATION_REPRESENTATION (  '', ( #21 ), #129 ) ;
#61 = CARTESIAN_POINT ( 'NONE',  ( 0.000000000000000000, 0.000000000000000000, -20.00000000000000000 ) ) ;
#62 = ORIENTED_EDGE ( 'NONE', *, *, #251, .F. ) ;
#63 = DIRECTION ( 'NONE',  ( -0.000000000000000000, -0.000000000000000000, -1.000000000000000000 ) ) ;
#64 = CYLINDRICAL_SURFACE ( 'NONE', #200, 34.82357018822457917 ) ;
#65 =( GEOMETRIC_REPRESENTATION_CONTEXT ( 3 ) GLOBAL_UNCERTAINTY_ASSIGNED_CONTEXT ( ( #102 ) ) GLOBAL_UNIT_ASSIGNED_CONTEXT ( ( #157, #281, #79 ) ) REPRESENTATION_CONTEXT ( 'NONE', 'WORKASPACE' ) );
#66 = DIRECTION ( 'NONE',  ( -1.000000000000000000, 0.000000000000000000, 0.000000000000000000 ) ) ;
#67 = LINE ( 'NONE', #154, #100 ) ;
#68 = EDGE_CURVE ( 'NONE', #284, #289, #124, .T. ) ;
#69 = DIRECTION ( 'NONE',  ( 1.000000000000000000, 0.000000000000000000, 0.000000000000000000 ) ) ;
#70 = VECTOR ( 'NONE', #19, 1000.000000000000000 ) ;
#71 = FILL_AREA_STYLE_COLOUR ( '', #160 ) ;
#72 = EDGE_CURVE ( 'NONE', #5, #278, #194, .T. ) ;
#73 = CYLINDRICAL_SURFACE ( 'NONE', #45, 39.99999999999999289 ) ;
#74 = ORIENTED_EDGE ( 'NONE', *, *, #36, .T. ) ;
#75 = DIRECTION ( 'NONE',  ( 0.4000000000000000222, -0.9165151389911679880, 0.000000000000000000 ) ) ;
#76 = ORIENTED_EDGE ( 'NONE', *, *, #145, .F. ) ;
#77 = DIRECTION ( 'NONE',  ( 0.000000000000000000, 0.000000000000000000, 1.000000000000000000 ) ) ;
#78 = ORIENTED_EDGE ( 'NONE', *, *, #106, .F. ) ;
#79 =( NAMED_UNIT ( * ) SI_UNIT ( $, .STERADIAN. ) SOLID_ANGLE_UNIT ( ) );
#80 = VERTEX_POINT ( 'NONE', #83 ) ;
#81 = EDGE_LOOP ( 'NONE', ( #22, #62 ) ) ;
#82 = EDGE_LOOP ( 'NONE', ( #96, #142, #38, #185 ) ) ;
#83 = CARTESIAN_POINT ( 'NONE',  ( -65.99999999999921840, -36.66060555964708101, -20.00000000000000000 ) ) ;
#84 = DIRECTION ( 'NONE',  ( 0.000000000000000000, 0.000000000000000000, 1.000000000000000000 ) ) ;
#85 = DIRECTION ( 'NONE',  ( -0.9165151389911679880, -0.4000000000000000222, -0.000000000000000000 ) ) ;
#86 = ADVANCED_BREP_SHAPE_REPRESENTATION ( 'cam', ( #176, #227 ), #65 ) ;
#87 = VERTEX_POINT ( 'NONE', #171 ) ;
#88 = LINE ( 'NONE', #43, #41 ) ;
#89 = AXIS2_PLACEMENT_3D ( 'NONE', #212, #183, #115 ) ;
#90 = DIRECTION ( 'NONE',  ( -0.000000000000000000, -0.000000000000000000, -1.000000000000000000 ) ) ;
#91 = DIRECTION ( 'NONE',  ( 0.000000000000000000, 0.000000000000000000, 1.000000000000000000 ) ) ;
#92 = VECTOR ( 'NONE', #288, 1000.000000000000000 ) ;
#93 = EDGE_CURVE ( 'NONE', #258, #282, #125, .T. ) ;
#94 = VERTEX_POINT ( 'NONE', #126 ) ;
#95 = CARTESIAN_POINT ( 'NONE',  ( -34.82357018822457917, 0.000000000000000000, -20.00000000000000000 ) ) ;
#96 = ORIENTED_EDGE ( 'NONE', *, *, #294, .F. ) ;
#97 = ORIENTED_EDGE ( 'NONE', *, *, #247, .T. ) ;
#98 = ORIENTED_EDGE ( 'NONE', *, *, #237, .F. ) ;
#99 = ADVANCED_FACE ( 'NONE', ( #217, #104 ), #202, .F. ) ;
#100 = VECTOR ( 'NONE', #134, 999.9999999999998863 ) ;
#101 = DIRECTION ( 'NONE',  ( 1.000000000000000000, 0.000000000000000000, 0.000000000000000000 ) ) ;
#102 = UNCERTAINTY_MEASURE_WITH_UNIT (LENGTH_MEASURE( 1.000000000000000082E-05 ), #157, 'distance_accuracy_value', 'NONE');
#103 = CARTESIAN_POINT ( 'NONE',  ( -90.00000000000000000, -1.060107667984752945E-14, 20.00000000000000000 ) ) ;
#104 = FACE_BOUND ( 'NONE', #290, .T. ) ;
#105 = CARTESIAN_POINT ( 'NONE',  ( 34.82357018822457917, 4.264657376589242966E-15, 20.00000000000000000 ) ) ;
#106 = EDGE_CURVE ( 'NONE', #289, #284, #291, .T. ) ;
#107 = SURFACE_SIDE_STYLE ('',( #156 ) ) ;
#108 = DIRECTION ( 'NONE',  ( 1.000000000000000000, 0.000000000000000000, 0.000000000000000000 ) ) ;
#109 = ADVANCED_FACE ( 'NONE', ( #276 ), #248, .F. ) ;
#110 = DIRECTION ( 'NONE',  ( -0.000000000000000000, -0.000000000000000000, -1.000000000000000000 ) ) ;
#111 = APPLICATION_PROTOCOL_DEFINITION ( 'draft international standard', 'automotive_design', 1998, #137 ) ;
#112 = AXIS2_PLACEMENT_3D ( 'NONE', #15, #269, #182 ) ;
#113 = CARTESIAN_POINT ( 'NONE',  ( -65.99999999999920419, 36.66060555964706680, -20.00000000000000000 ) ) ;
#114 = ORIENTED_EDGE ( 'NONE', *, *, #48, .T. ) ;
#115 = DIRECTION ( 'NONE',  ( 1.000000000000000000, 0.000000000000000000, 0.000000000000000000 ) ) ;
#116 = ORIENTED_EDGE ( 'NONE', *, *, #10, .F. ) ;
#117 = EDGE_CURVE ( 'NONE', #282, #5, #55, .T. ) ;
#118 = CARTESIAN_POINT ( 'NONE',  ( -24.00000000000000000, 54.99090833947007440, 20.00000000000000000 ) ) ;
#119 = ORIENTED_EDGE ( 'NONE', *, *, #72, .F. ) ;
#120 = AXIS2_PLACEMENT_3D ( 'NONE', #8, #287, #148 ) ;
#121 = EDGE_CURVE ( 'NONE', #258, #1, #16, .T. ) ;
#122 = ORIENTED_EDGE ( 'NONE', *, *, #121, .T. ) ;
#123 = DIRECTION ( 'NONE',  ( 0.000000000000000000, 0.000000000000000000, 1.000000000000000000 ) ) ;
#124 = CIRCLE ( 'NONE', #265, 34.82357018822457917 ) ;
#125 = LINE ( 'NONE', #263, #234 ) ;
#126 = CARTESIAN_POINT ( 'NONE',  ( -65.99999999999921840, -36.66060555964708101, 20.00000000000000000 ) ) ;
#127 = EDGE_LOOP ( 'NONE', ( #119, #58, #189, #74 ) ) ;
#128 = VECTOR ( 'NONE', #201, 1000.000000000000000 ) ;
#129 =( GEOMETRIC_REPRESENTATION_CONTEXT ( 3 ) GLOBAL_UNCERTAINTY_ASSIGNED_CONTEXT ( ( #131 ) ) GLOBAL_UNIT_ASSIGNED_CONTEXT ( ( #297, #13, #224 ) ) REPRESENTATION_CONTEXT ( 'NONE', 'WORKASPACE' ) );
#130 = CARTESIAN_POINT ( 'NONE',  ( -50.00000000000000000, -1.060107667984752945E-14, -20.00000000000000000 ) ) ;
#131 = UNCERTAINTY_MEASURE_WITH_UNIT (LENGTH_MEASURE( 1.000000000000000082E-05 ), #297, 'distance_accuracy_value', 'NONE');
#132 = CARTESIAN_POINT ( 'NONE',  ( -65.99999999999921840, -36.66060555964708101, 20.00000000000000000 ) ) ;
#133 = PRODUCT_DEFINITION_SHAPE ( 'NONE', 'NONE',  #274 ) ;
#134 = DIRECTION ( 'NONE',  ( 0.9165151389911679880, -0.4000000000000000777, 0.000000000000000000 ) ) ;
#135 = CARTESIAN_POINT ( 'NONE',  ( 0.000000000000000000, 0.000000000000000000, 20.00000000000000000 ) ) ;
#136 = ORIENTED_EDGE ( 'NONE', *, *, #237, .T. ) ;
#137 = APPLICATION_CONTEXT ( 'automotive_design' ) ;
#138 = CARTESIAN_POINT ( 'NONE',  ( -50.00000000000000000, -1.060107667984752945E-14, 20.00000000000000000 ) ) ;
#139 = EDGE_LOOP ( 'NONE', ( #255, #27, #78, #147 ) ) ;
#140 = EDGE_CURVE ( 'NONE', #277, #289, #177, .T. ) ;
#141 = DIRECTION ( 'NONE',  ( -0.9165151389911679880, -0.4000000000000000222, -0.000000000000000000 ) ) ;
#142 = ORIENTED_EDGE ( 'NONE', *, *, #251, .T. ) ;
#143 = LINE ( 'NONE', #159, #34 ) ;
#144 = CIRCLE ( 'NONE', #270, 60.00000000000001421 ) ;
#145 = EDGE_CURVE ( 'NONE', #94, #80, #199, .T. ) ;
#146 = ORIENTED_EDGE ( 'NONE', *, *, #121, .F. ) ;
#147 = ORIENTED_EDGE ( 'NONE', *, *, #140, .F. ) ;
#148 = DIRECTION ( 'NONE',  ( -1.000000000000000000, 0.000000000000000000, 0.000000000000000000 ) ) ;
#149 = VECTOR ( 'NONE', #63, 1000.000000000000000 ) ;
#150 = DIRECTION ( 'NONE',  ( 0.000000000000000000, 0.000000000000000000, 1.000000000000000000 ) ) ;
#151 = ORIENTED_EDGE ( 'NONE', *, *, #10, .T. ) ;
#152 = DIRECTION ( 'NONE',  ( -1.000000000000000000, 0.000000000000000000, 0.000000000000000000 ) ) ;
#153 = DIRECTION ( 'NONE',  ( -1.000000000000000000, 0.000000000000000000, 0.000000000000000000 ) ) ;
#154 = CARTESIAN_POINT ( 'NONE',  ( -65.99999999999921840, -36.66060555964708101, -20.00000000000000000 ) ) ;
#155 = CARTESIAN_POINT ( 'NONE',  ( -34.82357018822457917, 0.000000000000000000, 20.00000000000000000 ) ) ;
#156 = SURFACE_STYLE_FILL_AREA ( #44 ) ;
#157 =( LENGTH_UNIT ( ) NAMED_UNIT ( * ) SI_UNIT ( .MILLI., .METRE. ) );
#158 = ORIENTED_EDGE ( 'NONE', *, *, #106, .T. ) ;
#159 = CARTESIAN_POINT ( 'NONE',  ( 34.82357018822457917, 4.264657376589242966E-15, 20.00000000000000000 ) ) ;
#160 = COLOUR_RGB ( '',0.7921568627450980005, 0.8196078431372548767, 0.9333333333333333481 ) ;
#161 = EDGE_LOOP ( 'NONE', ( #268, #54, #30, #163 ) ) ;
#162 = SHAPE_DEFINITION_REPRESENTATION ( #133, #86 ) ;
#163 = ORIENTED_EDGE ( 'NONE', *, *, #145, .T. ) ;
#164 = DIRECTION ( 'NONE',  ( 0.9165151389911679880, 0.4000000000000000222, 0.000000000000000000 ) ) ;
#165 = ORIENTED_EDGE ( 'NONE', *, *, #172, .T. ) ;
#166 = ADVANCED_FACE ( 'NONE', ( #203 ), #64, .F. ) ;
#167 = FACE_OUTER_BOUND ( 'NONE', #186, .T. ) ;
#168 = AXIS2_PLACEMENT_3D ( 'NONE', #46, #273, #69 ) ;
#169 = CIRCLE ( 'NONE', #89, 34.82357018822457917 ) ;
#170 = ORIENTED_EDGE ( 'NONE', *, *, #93, .T. ) ;
#171 = CARTESIAN_POINT ( 'NONE',  ( -24.00000000000001421, -54.99090833947010282, 20.00000000000000000 ) ) ;
#172 = EDGE_CURVE ( 'NONE', #11, #1, #231, .T. ) ;
#173 = DIRECTION ( 'NONE',  ( -1.000000000000000000, 0.000000000000000000, 0.000000000000000000 ) ) ;
#174 = CYLINDRICAL_SURFACE ( 'NONE', #249, 60.00000000000001421 ) ;
#175 = CARTESIAN_POINT ( 'NONE',  ( -24.00000000000001421, -54.99090833947010282, 20.00000000000000000 ) ) ;
#176 = MANIFOLD_SOLID_BREP ( 'Boss-Extrude1', #181 ) ;
#177 = LINE ( 'NONE', #155, #70 ) ;
#178 = FACE_OUTER_BOUND ( 'NONE', #161, .T. ) ;
#179 = DIRECTION ( 'NONE',  ( 0.4000000000000001332, 0.9165151389911679880, -0.000000000000000000 ) ) ;
#180 = CARTESIAN_POINT ( 'NONE',  ( 0.000000000000000000, 0.000000000000000000, 20.00000000000000000 ) ) ;
#181 = CLOSED_SHELL ( 'NONE', ( #109, #39, #2, #99, #23, #279, #256, #192, #166 ) ) ;
#182 = DIRECTION ( 'NONE',  ( 1.000000000000000000, 0.000000000000000000, -0.000000000000000000 ) ) ;
#183 = DIRECTION ( 'NONE',  ( 0.000000000000000000, 0.000000000000000000, 1.000000000000000000 ) ) ;
#184 = EDGE_CURVE ( 'NONE', #282, #9, #88, .T. ) ;
#185 = ORIENTED_EDGE ( 'NONE', *, *, #68, .F. ) ;
#186 = EDGE_LOOP ( 'NONE', ( #97, #52, #50, #122 ) ) ;
#187 = CARTESIAN_POINT ( 'NONE',  ( -34.82357018822457917, 0.000000000000000000, 20.00000000000000000 ) ) ;
#188 = EDGE_LOOP ( 'NONE', ( #165, #146, #98, #254 ) ) ;
#189 = ORIENTED_EDGE ( 'NONE', *, *, #184, .T. ) ;
#190 = FACE_OUTER_BOUND ( 'NONE', #235, .T. ) ;
#191 = CARTESIAN_POINT ( 'NONE',  ( -90.00000000000000000, -1.060107667984752945E-14, 20.00000000000000000 ) ) ;
#192 = ADVANCED_FACE ( 'NONE', ( #178 ), #42, .F. ) ;
#193 = CYLINDRICAL_SURFACE ( 'NONE', #120, 39.99999999999999289 ) ;
#194 = LINE ( 'NONE', #191, #92 ) ;
#195 = AXIS2_PLACEMENT_3D ( 'NONE', #132, #179, #272 ) ;
#196 = CARTESIAN_POINT ( 'NONE',  ( -65.99999999999920419, 36.66060555964706680, -20.00000000000000000 ) ) ;
#197 = EDGE_CURVE ( 'NONE', #80, #11, #67, .T. ) ;
#198 = CARTESIAN_POINT ( 'NONE',  ( -65.99999999999921840, -36.66060555964708101, 20.00000000000000000 ) ) ;
#199 = LINE ( 'NONE', #198, #299 ) ;
#200 = AXIS2_PLACEMENT_3D ( 'NONE', #271, #252, #153 ) ;
#201 = DIRECTION ( 'NONE',  ( -0.000000000000000000, -0.000000000000000000, -1.000000000000000000 ) ) ;
#202 = PLANE ( 'NONE',  #112 ) ;
#203 = FACE_OUTER_BOUND ( 'NONE', #82, .T. ) ;
#204 = FACE_OUTER_BOUND ( 'NONE', #127, .T. ) ;
#205 = AXIS2_PLACEMENT_3D ( 'NONE', #180, #18, #108 ) ;
#206 = CARTESIAN_POINT ( 'NONE',  ( 34.82357018822457917, 4.264657376589242966E-15, -20.00000000000000000 ) ) ;
#207 = ORIENTED_EDGE ( 'NONE', *, *, #172, .F. ) ;
#208 = EDGE_LOOP ( 'NONE', ( #207, #31, #280, #236, #261 ) ) ;
#209 = CARTESIAN_POINT ( 'NONE',  ( -65.99999999999920419, 36.66060555964706680, 20.00000000000000000 ) ) ;
#210 = AXIS2_PLACEMENT_3D ( 'NONE', #292, #150, #173 ) ;
#211 = PRODUCT_DEFINITION_FORMATION_WITH_SPECIFIED_SOURCE ( 'ANY', '', #223, .NOT_KNOWN. ) ;
#212 = CARTESIAN_POINT ( 'NONE',  ( 0.000000000000000000, 0.000000000000000000, 20.00000000000000000 ) ) ;
#213 = ORIENTED_EDGE ( 'NONE', *, *, #68, .T. ) ;
#214 = DIRECTION ( 'NONE',  ( 0.000000000000000000, 0.000000000000000000, 1.000000000000000000 ) ) ;
#215 = CIRCLE ( 'NONE', #275, 39.99999999999999289 ) ;
#216 = FACE_OUTER_BOUND ( 'NONE', #7, .T. ) ;
#217 = FACE_OUTER_BOUND ( 'NONE', #208, .T. ) ;
#218 = EDGE_CURVE ( 'NONE', #277, #3, #260, .T. ) ;
#219 = PLANE ( 'NONE',  #243 ) ;
#220 = CIRCLE ( 'NONE', #33, 39.99999999999999289 ) ;
#221 = AXIS2_PLACEMENT_3D ( 'NONE', #24, #75, #164 ) ;
#222 = DIRECTION ( 'NONE',  ( -1.000000000000000000, 0.000000000000000000, 0.000000000000000000 ) ) ;
#223 = PRODUCT ( 'cam', 'cam', '', ( #20 ) ) ;
#224 =( NAMED_UNIT ( * ) SI_UNIT ( $, .STERADIAN. ) SOLID_ANGLE_UNIT ( ) );
#225 = CARTESIAN_POINT ( 'NONE',  ( -24.00000000000000000, 54.99090833947007440, 20.00000000000000000 ) ) ;
#226 = EDGE_CURVE ( 'NONE', #94, #87, #49, .T. ) ;
#227 = AXIS2_PLACEMENT_3D ( 'NONE', #56, #77, #253 ) ;
#228 = SURFACE_STYLE_USAGE ( .BOTH. , #107 ) ;
#229 = CARTESIAN_POINT ( 'NONE',  ( -50.00000000000000000, -1.060107667984752945E-14, 20.00000000000000000 ) ) ;
#230 = APPLICATION_PROTOCOL_DEFINITION ( 'draft international standard', 'automotive_design', 1998, #32 ) ;
#231 = CIRCLE ( 'NONE', #286, 60.00000000000001421 ) ;
#232 = DIRECTION ( 'NONE',  ( 0.000000000000000000, 0.000000000000000000, 1.000000000000000000 ) ) ;
#233 = CARTESIAN_POINT ( 'NONE',  ( -90.00000000000000000, -1.060107667984752945E-14, -20.00000000000000000 ) ) ;
#234 = VECTOR ( 'NONE', #85, 1000.000000000000114 ) ;
#235 = EDGE_LOOP ( 'NONE', ( #116, #25, #114, #76 ) ) ;
#236 = ORIENTED_EDGE ( 'NONE', *, *, #36, .F. ) ;
#237 = EDGE_CURVE ( 'NONE', #87, #258, #144, .T. ) ;
#238 = FACE_OUTER_BOUND ( 'NONE', #188, .T. ) ;
#239 = CARTESIAN_POINT ( 'NONE',  ( -50.00000000000000000, -1.060107667984752945E-14, -20.00000000000000000 ) ) ;
#240 = DIRECTION ( 'NONE',  ( -0.000000000000000000, -0.000000000000000000, -1.000000000000000000 ) ) ;
#241 = CARTESIAN_POINT ( 'NONE',  ( -24.00000000000000000, 54.99090833947007440, -20.00000000000000000 ) ) ;
#242 = DIRECTION ( 'NONE',  ( 1.000000000000000000, 0.000000000000000000, -0.000000000000000000 ) ) ;
#243 = AXIS2_PLACEMENT_3D ( 'NONE', #59, #264, #242 ) ;
#244 = DIRECTION ( 'NONE',  ( 0.000000000000000000, 0.000000000000000000, 1.000000000000000000 ) ) ;
#245 = PRODUCT_DEFINITION_CONTEXT ( 'detailed design', #137, 'design' ) ;
#246 = DIRECTION ( 'NONE',  ( 1.000000000000000000, 0.000000000000000000, 0.000000000000000000 ) ) ;
#247 = EDGE_CURVE ( 'NONE', #1, #9, #53, .T. ) ;
#248 = CYLINDRICAL_SURFACE ( 'NONE', #259, 34.82357018822457917 ) ;
#249 = AXIS2_PLACEMENT_3D ( 'NONE', #267, #240, #152 ) ;
#250 = DIRECTION ( 'NONE',  ( -0.000000000000000000, -0.000000000000000000, -1.000000000000000000 ) ) ;
#251 = EDGE_CURVE ( 'NONE', #3, #277, #169, .T. ) ;
#252 = DIRECTION ( 'NONE',  ( -0.000000000000000000, -0.000000000000000000, -1.000000000000000000 ) ) ;
#253 = DIRECTION ( 'NONE',  ( 1.000000000000000000, 0.000000000000000000, 0.000000000000000000 ) ) ;
#254 = ORIENTED_EDGE ( 'NONE', *, *, #14, .T. ) ;
#255 = ORIENTED_EDGE ( 'NONE', *, *, #218, .T. ) ;
#256 = ADVANCED_FACE ( 'NONE', ( #204 ), #73, .T. ) ;
#257 = CARTESIAN_POINT ( 'NONE',  ( -65.99999999999921840, -36.66060555964708101, 20.00000000000000000 ) ) ;
#258 = VERTEX_POINT ( 'NONE', #118 ) ;
#259 = AXIS2_PLACEMENT_3D ( 'NONE', #135, #250, #293 ) ;
#260 = CIRCLE ( 'NONE', #205, 34.82357018822457917 ) ;
#261 = ORIENTED_EDGE ( 'NONE', *, *, #247, .F. ) ;
#262 = CARTESIAN_POINT ( 'NONE',  ( 0.000000000000000000, 0.000000000000000000, 20.00000000000000000 ) ) ;
#263 = CARTESIAN_POINT ( 'NONE',  ( -65.99999999999920419, 36.66060555964706680, 20.00000000000000000 ) ) ;
#264 = DIRECTION ( 'NONE',  ( 0.000000000000000000, 0.000000000000000000, 1.000000000000000000 ) ) ;
#265 = AXIS2_PLACEMENT_3D ( 'NONE', #61, #214, #101 ) ;
#266 = VECTOR ( 'NONE', #283, 999.9999999999998863 ) ;
#267 = CARTESIAN_POINT ( 'NONE',  ( 0.000000000000000000, 0.000000000000000000, 20.00000000000000000 ) ) ;
#268 = ORIENTED_EDGE ( 'NONE', *, *, #197, .T. ) ;
#269 = DIRECTION ( 'NONE',  ( 0.000000000000000000, 0.000000000000000000, 1.000000000000000000 ) ) ;
#270 = AXIS2_PLACEMENT_3D ( 'NONE', #262, #232, #300 ) ;
#271 = CARTESIAN_POINT ( 'NONE',  ( 0.000000000000000000, 0.000000000000000000, 20.00000000000000000 ) ) ;
#272 = DIRECTION ( 'NONE',  ( -0.9165151389911678770, 0.4000000000000000777, 0.000000000000000000 ) ) ;
#273 = DIRECTION ( 'NONE',  ( 0.000000000000000000, 0.000000000000000000, 1.000000000000000000 ) ) ;
#274 = PRODUCT_DEFINITION ( 'UNKNOWN', '', #211, #245 ) ;
#275 = AXIS2_PLACEMENT_3D ( 'NONE', #130, #84, #222 ) ;
#276 = FACE_OUTER_BOUND ( 'NONE', #139, .T. ) ;
#277 = VERTEX_POINT ( 'NONE', #187 ) ;
#278 = VERTEX_POINT ( 'NONE', #233 ) ;
#279 = ADVANCED_FACE ( 'NONE', ( #167 ), #4, .F. ) ;
#280 = ORIENTED_EDGE ( 'NONE', *, *, #48, .F. ) ;
#281 =( NAMED_UNIT ( * ) PLANE_ANGLE_UNIT ( ) SI_UNIT ( $, .RADIAN. ) );
#282 = VERTEX_POINT ( 'NONE', #209 ) ;
#283 = DIRECTION ( 'NONE',  ( 0.9165151389911679880, -0.4000000000000000777, 0.000000000000000000 ) ) ;
#284 = VERTEX_POINT ( 'NONE', #206 ) ;
#285 = PRODUCT_RELATED_PRODUCT_CATEGORY ( 'part', '', ( #223 ) ) ;
#286 = AXIS2_PLACEMENT_3D ( 'NONE', #298, #91, #246 ) ;
#287 = DIRECTION ( 'NONE',  ( -0.000000000000000000, -0.000000000000000000, -1.000000000000000000 ) ) ;
#288 = DIRECTION ( 'NONE',  ( -0.000000000000000000, -0.000000000000000000, -1.000000000000000000 ) ) ;
#289 = VERTEX_POINT ( 'NONE', #95 ) ;
#290 = EDGE_LOOP ( 'NONE', ( #158, #213 ) ) ;
#291 = CIRCLE ( 'NONE', #168, 34.82357018822457917 ) ;
#292 = CARTESIAN_POINT ( 'NONE',  ( -50.00000000000000000, -1.060107667984752945E-14, 20.00000000000000000 ) ) ;
#293 = DIRECTION ( 'NONE',  ( -1.000000000000000000, 0.000000000000000000, 0.000000000000000000 ) ) ;
#294 = EDGE_CURVE ( 'NONE', #3, #284, #143, .T. ) ;
#295 = CIRCLE ( 'NONE', #210, 39.99999999999999289 ) ;
#296 = VECTOR ( 'NONE', #141, 1000.000000000000114 ) ;
#297 =( LENGTH_UNIT ( ) NAMED_UNIT ( * ) SI_UNIT ( .MILLI., .METRE. ) );
#298 = CARTESIAN_POINT ( 'NONE',  ( 0.000000000000000000, 0.000000000000000000, -20.00000000000000000 ) ) ;
#299 = VECTOR ( 'NONE', #110, 1000.000000000000000 ) ;
#300 = DIRECTION ( 'NONE',  ( 1.000000000000000000, 0.000000000000000000, 0.000000000000000000 ) ) ;
ENDSEC;
END-ISO-10303-21;
