ISO-10303-21;
HEADER;
FILE_DESCRIPTION (( 'STEP AP214' ),
    '1' );
FILE_NAME ('shaft.STEP',
    '2026-08-22T17:18:32',
    ( '' ),
    ( '' ),
    'SwSTEP 2.0',
    'SolidWorks 2024',
    '' );
FILE_SCHEMA (( 'AUTOMOTIVE_DESIGN' ));
ENDSEC;

DATA;
#1 = EDGE_CURVE ( 'NONE', #23, #37, #73, .T. ) ;
#2 = AXIS2_PLACEMENT_3D ( 'NONE', #59, #27, #38 ) ;
#3 = SURFACE_SIDE_STYLE ('',( #17 ) ) ;
#4 = COLOUR_RGB ( '',0.7921568627450980005, 0.8196078431372548767, 0.9333333333333333481 ) ;
#5 = APPLICATION_CONTEXT ( 'automotive_design' ) ;
#6 = ORIENTED_EDGE ( 'NONE', *, *, #39, .T. ) ;
#7 = DIRECTION ( 'NONE',  ( 0.000000000000000000, 0.000000000000000000, -1.000000000000000000 ) ) ;
#8 =( NAMED_UNIT ( * ) SI_UNIT ( $, .STERADIAN. ) SOLID_ANGLE_UNIT ( ) );
#9 = CARTESIAN_POINT ( 'NONE',  ( 0.000000000000000000, 0.000000000000000000, 0.000000000000000000 ) ) ;
#10 = CIRCLE ( 'NONE', #70, 34.00000000000000000 ) ;
#11 = PRODUCT_DEFINITION_FORMATION_WITH_SPECIFIED_SOURCE ( 'ANY', '', #56, .NOT_KNOWN. ) ;
#12 = ORIENTED_EDGE ( 'NONE', *, *, #72, .F. ) ;
#13 = PRESENTATION_LAYER_ASSIGNMENT (  '', '', ( #22 ) ) ;
#14 = CARTESIAN_POINT ( 'NONE',  ( 250.0000000000000000, 4.163799117101000559E-15, -34.00000000000000000 ) ) ;
#15 = PRODUCT_RELATED_PRODUCT_CATEGORY ( 'part', '', ( #56 ) ) ;
#16 = FACE_OUTER_BOUND ( 'NONE', #65, .T. ) ;
#17 = SURFACE_STYLE_FILL_AREA ( #33 ) ;
#18 = AXIS2_PLACEMENT_3D ( 'NONE', #85, #67, #34 ) ;
#19 = DIRECTION ( 'NONE',  ( -1.000000000000000000, -0.000000000000000000, -0.000000000000000000 ) ) ;
#20 = UNCERTAINTY_MEASURE_WITH_UNIT (LENGTH_MEASURE( 1.000000000000000082E-05 ), #71, 'distance_accuracy_value', 'NONE');
#21 = AXIS2_PLACEMENT_3D ( 'NONE', #9, #53, #28 ) ;
#22 = STYLED_ITEM ( 'NONE', ( #109 ), #108 ) ;
#23 = VERTEX_POINT ( 'NONE', #14 ) ;
#24 = VERTEX_POINT ( 'NONE', #61 ) ;
#25 = CARTESIAN_POINT ( 'NONE',  ( 250.0000000000000000, 0.000000000000000000, 0.000000000000000000 ) ) ;
#26 = EDGE_LOOP ( 'NONE', ( #79, #55, #49, #64 ) ) ;
#27 = DIRECTION ( 'NONE',  ( 1.000000000000000000, 0.000000000000000000, 0.000000000000000000 ) ) ;
#28 = DIRECTION ( 'NONE',  ( 1.000000000000000000, 0.000000000000000000, 0.000000000000000000 ) ) ;
#29 = SHAPE_DEFINITION_REPRESENTATION ( #87, #83 ) ;
#30 =( GEOMETRIC_REPRESENTATION_CONTEXT ( 3 ) GLOBAL_UNCERTAINTY_ASSIGNED_CONTEXT ( ( #20 ) ) GLOBAL_UNIT_ASSIGNED_CONTEXT ( ( #71, #62, #8 ) ) REPRESENTATION_CONTEXT ( 'NONE', 'WORKASPACE' ) );
#31 = DIRECTION ( 'NONE',  ( -1.000000000000000000, -0.000000000000000000, -0.000000000000000000 ) ) ;
#32 = AXIS2_PLACEMENT_3D ( 'NONE', #41, #99, #81 ) ;
#33 = FILL_AREA_STYLE ('',( #106 ) ) ;
#34 = DIRECTION ( 'NONE',  ( 0.000000000000000000, 0.000000000000000000, 1.000000000000000000 ) ) ;
#35 = VERTEX_POINT ( 'NONE', #51 ) ;
#36 = VECTOR ( 'NONE', #19, 1000.000000000000000 ) ;
#37 = VERTEX_POINT ( 'NONE', #76 ) ;
#38 = DIRECTION ( 'NONE',  ( 0.000000000000000000, 0.000000000000000000, -1.000000000000000000 ) ) ;
#39 = EDGE_CURVE ( 'NONE', #35, #24, #10, .T. ) ;
#40 = LINE ( 'NONE', #125, #36 ) ;
#41 = CARTESIAN_POINT ( 'NONE',  ( 250.0000000000000000, 0.000000000000000000, 0.000000000000000000 ) ) ;
#42 = ADVANCED_FACE ( 'NONE', ( #121 ), #75, .F. ) ;
#43 = ADVANCED_FACE ( 'NONE', ( #124 ), #57, .T. ) ;
#44 = MECHANICAL_DESIGN_GEOMETRIC_PRESENTATION_REPRESENTATION (  '', ( #22 ), #68 ) ;
#45 = ORIENTED_EDGE ( 'NONE', *, *, #39, .F. ) ;
#46 = AXIS2_PLACEMENT_3D ( 'NONE', #86, #77, #112 ) ;
#47 = CIRCLE ( 'NONE', #2, 34.00000000000000000 ) ;
#48 = CYLINDRICAL_SURFACE ( 'NONE', #18, 34.00000000000000000 ) ;
#49 = ORIENTED_EDGE ( 'NONE', *, *, #72, .T. ) ;
#50 =( NAMED_UNIT ( * ) PLANE_ANGLE_UNIT ( ) SI_UNIT ( $, .RADIAN. ) );
#51 = CARTESIAN_POINT ( 'NONE',  ( 0.000000000000000000, 0.000000000000000000, 34.00000000000000000 ) ) ;
#52 = EDGE_CURVE ( 'NONE', #37, #23, #47, .T. ) ;
#53 = DIRECTION ( 'NONE',  ( 0.000000000000000000, 0.000000000000000000, 1.000000000000000000 ) ) ;
#54 = PRODUCT_DEFINITION_CONTEXT ( 'detailed design', #5, 'design' ) ;
#55 = ORIENTED_EDGE ( 'NONE', *, *, #120, .T. ) ;
#56 = PRODUCT ( 'shaft', 'shaft', '', ( #69 ) ) ;
#57 = PLANE ( 'NONE',  #115 ) ;
#58 = ORIENTED_EDGE ( 'NONE', *, *, #118, .T. ) ;
#59 = CARTESIAN_POINT ( 'NONE',  ( 250.0000000000000000, 0.000000000000000000, 0.000000000000000000 ) ) ;
#60 = CARTESIAN_POINT ( 'NONE',  ( 250.0000000000000000, 0.000000000000000000, 0.000000000000000000 ) ) ;
#61 = CARTESIAN_POINT ( 'NONE',  ( 0.000000000000000000, 4.163799117101000559E-15, -34.00000000000000000 ) ) ;
#62 =( NAMED_UNIT ( * ) PLANE_ANGLE_UNIT ( ) SI_UNIT ( $, .RADIAN. ) );
#63 = AXIS2_PLACEMENT_3D ( 'NONE', #25, #84, #7 ) ;
#64 = ORIENTED_EDGE ( 'NONE', *, *, #118, .F. ) ;
#65 = EDGE_LOOP ( 'NONE', ( #102, #122, #58, #6 ) ) ;
#66 = DIRECTION ( 'NONE',  ( 0.000000000000000000, 0.000000000000000000, -1.000000000000000000 ) ) ;
#67 = DIRECTION ( 'NONE',  ( -1.000000000000000000, -0.000000000000000000, -0.000000000000000000 ) ) ;
#68 =( GEOMETRIC_REPRESENTATION_CONTEXT ( 3 ) GLOBAL_UNCERTAINTY_ASSIGNED_CONTEXT ( ( #100 ) ) GLOBAL_UNIT_ASSIGNED_CONTEXT ( ( #74, #50, #90 ) ) REPRESENTATION_CONTEXT ( 'NONE', 'WORKASPACE' ) );
#69 = PRODUCT_CONTEXT ( 'NONE', #93, 'mechanical' ) ;
#70 = AXIS2_PLACEMENT_3D ( 'NONE', #89, #110, #66 ) ;
#71 =( LENGTH_UNIT ( ) NAMED_UNIT ( * ) SI_UNIT ( .MILLI., .METRE. ) );
#72 = EDGE_CURVE ( 'NONE', #24, #35, #101, .T. ) ;
#73 = CIRCLE ( 'NONE', #63, 34.00000000000000000 ) ;
#74 =( LENGTH_UNIT ( ) NAMED_UNIT ( * ) SI_UNIT ( .MILLI., .METRE. ) );
#75 = PLANE ( 'NONE',  #119 ) ;
#76 = CARTESIAN_POINT ( 'NONE',  ( 250.0000000000000000, 0.000000000000000000, 34.00000000000000000 ) ) ;
#77 = DIRECTION ( 'NONE',  ( 1.000000000000000000, 0.000000000000000000, 0.000000000000000000 ) ) ;
#78 = ADVANCED_FACE ( 'NONE', ( #16 ), #48, .T. ) ;
#79 = ORIENTED_EDGE ( 'NONE', *, *, #1, .F. ) ;
#80 = APPLICATION_PROTOCOL_DEFINITION ( 'draft international standard', 'automotive_design', 1998, #93 ) ;
#81 = DIRECTION ( 'NONE',  ( 0.000000000000000000, 0.000000000000000000, 1.000000000000000000 ) ) ;
#82 = PRODUCT_DEFINITION ( 'UNKNOWN', '', #11, #54 ) ;
#83 = ADVANCED_BREP_SHAPE_REPRESENTATION ( 'shaft', ( #108, #21 ), #30 ) ;
#84 = DIRECTION ( 'NONE',  ( 1.000000000000000000, 0.000000000000000000, 0.000000000000000000 ) ) ;
#85 = CARTESIAN_POINT ( 'NONE',  ( 250.0000000000000000, 0.000000000000000000, 0.000000000000000000 ) ) ;
#86 = CARTESIAN_POINT ( 'NONE',  ( 0.000000000000000000, 0.000000000000000000, 0.000000000000000000 ) ) ;
#87 = PRODUCT_DEFINITION_SHAPE ( 'NONE', 'NONE',  #82 ) ;
#88 = CYLINDRICAL_SURFACE ( 'NONE', #32, 34.00000000000000000 ) ;
#89 = CARTESIAN_POINT ( 'NONE',  ( 0.000000000000000000, 0.000000000000000000, 0.000000000000000000 ) ) ;
#90 =( NAMED_UNIT ( * ) SI_UNIT ( $, .STERADIAN. ) SOLID_ANGLE_UNIT ( ) );
#91 = APPLICATION_PROTOCOL_DEFINITION ( 'draft international standard', 'automotive_design', 1998, #5 ) ;
#92 = VECTOR ( 'NONE', #31, 1000.000000000000000 ) ;
#93 = APPLICATION_CONTEXT ( 'automotive_design' ) ;
#94 = EDGE_LOOP ( 'NONE', ( #97, #113 ) ) ;
#95 = DIRECTION ( 'NONE',  ( 0.000000000000000000, 0.000000000000000000, -1.000000000000000000 ) ) ;
#96 = DIRECTION ( 'NONE',  ( 1.000000000000000000, 0.000000000000000000, 0.000000000000000000 ) ) ;
#97 = ORIENTED_EDGE ( 'NONE', *, *, #52, .T. ) ;
#98 = DIRECTION ( 'NONE',  ( 0.000000000000000000, 0.000000000000000000, -1.000000000000000000 ) ) ;
#99 = DIRECTION ( 'NONE',  ( -1.000000000000000000, -0.000000000000000000, -0.000000000000000000 ) ) ;
#100 = UNCERTAINTY_MEASURE_WITH_UNIT (LENGTH_MEASURE( 1.000000000000000082E-05 ), #74, 'distance_accuracy_value', 'NONE');
#101 = CIRCLE ( 'NONE', #46, 34.00000000000000000 ) ;
#102 = ORIENTED_EDGE ( 'NONE', *, *, #120, .F. ) ;
#103 = CARTESIAN_POINT ( 'NONE',  ( 0.000000000000000000, 0.000000000000000000, 0.000000000000000000 ) ) ;
#104 = DIRECTION ( 'NONE',  ( 1.000000000000000000, 0.000000000000000000, 0.000000000000000000 ) ) ;
#105 = EDGE_LOOP ( 'NONE', ( #45, #12 ) ) ;
#106 = FILL_AREA_STYLE_COLOUR ( '', #4 ) ;
#107 = FACE_OUTER_BOUND ( 'NONE', #26, .T. ) ;
#108 = MANIFOLD_SOLID_BREP ( 'Boss-Extrude1', #111 ) ;
#109 = PRESENTATION_STYLE_ASSIGNMENT (( #123 ) ) ;
#110 = DIRECTION ( 'NONE',  ( 1.000000000000000000, 0.000000000000000000, 0.000000000000000000 ) ) ;
#111 = CLOSED_SHELL ( 'NONE', ( #114, #78, #43, #42 ) ) ;
#112 = DIRECTION ( 'NONE',  ( 0.000000000000000000, 0.000000000000000000, -1.000000000000000000 ) ) ;
#113 = ORIENTED_EDGE ( 'NONE', *, *, #1, .T. ) ;
#114 = ADVANCED_FACE ( 'NONE', ( #107 ), #88, .T. ) ;
#115 = AXIS2_PLACEMENT_3D ( 'NONE', #60, #104, #95 ) ;
#116 = CARTESIAN_POINT ( 'NONE',  ( 250.0000000000000000, 0.000000000000000000, 34.00000000000000000 ) ) ;
#117 = LINE ( 'NONE', #116, #92 ) ;
#118 = EDGE_CURVE ( 'NONE', #37, #35, #117, .T. ) ;
#119 = AXIS2_PLACEMENT_3D ( 'NONE', #103, #96, #98 ) ;
#120 = EDGE_CURVE ( 'NONE', #23, #24, #40, .T. ) ;
#121 = FACE_OUTER_BOUND ( 'NONE', #105, .T. ) ;
#122 = ORIENTED_EDGE ( 'NONE', *, *, #52, .F. ) ;
#123 = SURFACE_STYLE_USAGE ( .BOTH. , #3 ) ;
#124 = FACE_OUTER_BOUND ( 'NONE', #94, .T. ) ;
#125 = CARTESIAN_POINT ( 'NONE',  ( 250.0000000000000000, 4.163799117101000559E-15, -34.00000000000000000 ) ) ;
ENDSEC;
END-ISO-10303-21;
